<svg width="22" height="26" viewBox="0 0 22 26" fill="none" xmlns="http://www.w3.org/2000/svg">
<path d="M20.8894 5.11064L16.0144 0.235638C15.9384 0.160335 15.8484 0.100758 15.7494 0.0603244C15.6504 0.0198907 15.5444 -0.000604645 15.4375 1.35804e-05H2.4375C1.79103 1.35804e-05 1.17105 0.256821 0.713927 0.71394C0.256807 1.17106 0 1.79105 0 2.43751V23.5625C0 24.209 0.256807 24.829 0.713927 25.2861C1.17105 25.7432 1.79103 26 2.4375 26H18.6875C19.334 26 19.9539 25.7432 20.4111 25.2861C20.8682 24.829 21.125 24.209 21.125 23.5625V5.68751C21.1256 5.58058 21.1051 5.47458 21.0647 5.37559C21.0242 5.27659 20.9647 5.18656 20.8894 5.11064ZM19.5 23.5625C19.5 23.778 19.4144 23.9847 19.262 24.137C19.1096 24.2894 18.903 24.375 18.6875 24.375H2.4375C2.22201 24.375 2.01535 24.2894 1.86297 24.137C1.7106 23.9847 1.625 23.778 1.625 23.5625V2.43751C1.625 2.22202 1.7106 2.01536 1.86297 1.86299C2.01535 1.71062 2.22201 1.62501 2.4375 1.62501H14.625V4.87501C14.625 5.30599 14.7962 5.71931 15.1009 6.02406C15.4057 6.32881 15.819 6.50001 16.25 6.50001H19.5V23.5625Z" fill="black"/>
<path d="M6.5 8.9375C6.01791 8.9375 5.54664 9.08046 5.1458 9.34829C4.74495 9.61613 4.43253 9.99681 4.24804 10.4422C4.06356 10.8876 4.01529 11.3777 4.10934 11.8505C4.20339 12.3234 4.43554 12.7577 4.77643 13.0986C5.11732 13.4395 5.55164 13.6716 6.02447 13.7657C6.4973 13.8597 6.9874 13.8114 7.43279 13.627C7.87819 13.4425 8.25887 13.13 8.52671 12.7292C8.79454 12.3284 8.9375 11.8571 8.9375 11.375C8.9375 10.7285 8.68069 10.1085 8.22357 9.65143C7.76645 9.19431 7.14647 8.9375 6.5 8.9375ZM6.5 12.1875C6.3393 12.1875 6.18221 12.1398 6.0486 12.0506C5.91498 11.9613 5.81084 11.8344 5.74935 11.6859C5.68785 11.5375 5.67176 11.3741 5.70311 11.2165C5.73446 11.0589 5.81185 10.9141 5.92548 10.8005C6.03911 10.6868 6.18388 10.6095 6.34149 10.5781C6.4991 10.5468 6.66247 10.5629 6.81093 10.6243C6.9594 10.6858 7.08629 10.79 7.17557 10.9236C7.26485 11.0572 7.3125 11.2143 7.3125 11.375C7.3125 11.5905 7.2269 11.7971 7.07452 11.9495C6.92215 12.1019 6.71549 12.1875 6.5 12.1875Z" fill="black"/>
<path d="M6.5 17.0625C6.01791 17.0625 5.54664 17.2055 5.1458 17.4733C4.74495 17.7411 4.43253 18.1218 4.24804 18.5672C4.06356 19.0126 4.01529 19.5027 4.10934 19.9755C4.20339 20.4484 4.43554 20.8827 4.77643 21.2236C5.11732 21.5645 5.55164 21.7966 6.02447 21.8907C6.4973 21.9847 6.9874 21.9364 7.43279 21.752C7.87819 21.5675 8.25887 21.255 8.52671 20.8542C8.79454 20.4534 8.9375 19.9821 8.9375 19.5C8.9375 18.8535 8.68069 18.2335 8.22357 17.7764C7.76645 17.3193 7.14647 17.0625 6.5 17.0625ZM6.5 20.3125C6.3393 20.3125 6.18221 20.2648 6.0486 20.1756C5.91498 20.0863 5.81084 19.9594 5.74935 19.8109C5.68785 19.6625 5.67176 19.4991 5.70311 19.3415C5.73446 19.1839 5.81185 19.0391 5.92548 18.9255C6.03911 18.8118 6.18388 18.7345 6.34149 18.7031C6.4991 18.6718 6.66247 18.6879 6.81093 18.7493C6.9594 18.8108 7.08629 18.915 7.17557 19.0486C7.26485 19.1822 7.3125 19.3393 7.3125 19.5C7.3125 19.7155 7.2269 19.9222 7.07452 20.0745C6.92215 20.2269 6.71549 20.3125 6.5 20.3125Z" fill="black"/>
<path d="M17.0625 8.9375H10.5625V10.5625H17.0625V8.9375Z" fill="black"/>
<path d="M13.8125 12.1875H10.5625V13.8125H13.8125V12.1875Z" fill="black"/>
<path d="M17.0625 17.0625H10.5625V18.6875H17.0625V17.0625Z" fill="black"/>
<path d="M13.8125 20.3125H10.5625V21.9375H13.8125V20.3125Z" fill="black"/>
</svg>
