<svg width="26" height="26" viewBox="0 0 26 26" fill="none" xmlns="http://www.w3.org/2000/svg">
<path fill-rule="evenodd" clip-rule="evenodd" d="M13.0605 19.6961C13.0605 19.6245 13.039 19.562 12.9961 19.51C12.9533 19.4575 12.883 19.4178 12.7852 19.3893V20.0235C12.8664 20.0058 12.9328 19.9671 12.9837 19.9075C13.035 19.8477 13.0605 19.7775 13.0605 19.6961Z" fill="white"/>
<path fill-rule="evenodd" clip-rule="evenodd" d="M11.4392 2.0163C8.06273 3.01461 5.47216 8.06085 5.39453 14.1622H9.14744C9.16535 10.8022 9.50309 7.65083 10.1034 5.26125C10.3938 4.10497 10.8294 2.8084 11.4392 2.0163Z" fill="white"/>
<path fill-rule="evenodd" clip-rule="evenodd" d="M12.5491 18.2991C12.4855 18.3218 12.4359 18.3588 12.3985 18.4108C12.3616 18.4628 12.3433 18.5196 12.3433 18.5821C12.3433 18.6392 12.36 18.692 12.3937 18.7414C12.4275 18.7899 12.4794 18.8297 12.5491 18.8596V18.2991Z" fill="white"/>
<path fill-rule="evenodd" clip-rule="evenodd" d="M9.82036 2.15753C4.28875 3.42575 0.129664 8.30868 0 14.1626H4.83174C4.8735 10.7758 5.66842 7.59817 7.08114 5.18786C7.86952 3.84268 8.80114 2.81985 9.82036 2.15753Z" fill="white"/>
<path fill-rule="evenodd" clip-rule="evenodd" d="M15.5107 2.15753C16.53 2.81985 17.4615 3.84274 18.2499 5.18792C19.6625 7.59817 20.4572 10.7758 20.499 14.1626H25.3309C25.2013 8.30868 21.0422 3.42575 15.5107 2.15753Z" fill="white"/>
<path fill-rule="evenodd" clip-rule="evenodd" d="M13.8921 2.0163C14.5018 2.8084 14.9373 4.10503 15.2277 5.26131C15.8279 7.65095 16.1655 10.8024 16.1835 14.1623H19.9365C19.859 8.06079 17.2684 3.01449 13.8921 2.0163Z" fill="white"/>
<path fill-rule="evenodd" clip-rule="evenodd" d="M12.9466 16.781V12.8328C12.9466 12.6775 12.8207 12.5515 12.6653 12.5513C12.6654 12.5513 12.6655 12.5513 12.6656 12.5513C12.8211 12.5513 12.9471 12.6773 12.9471 12.8328V14.1624H15.6204C15.5842 7.3728 14.2453 2.52537 12.9453 1.90464C12.9455 1.90055 12.9466 1.89664 12.9466 1.89256V0.281559C12.9466 0.126058 12.8205 0 12.665 0C12.5095 0 12.3835 0.126058 12.3835 0.281559V1.89256C12.3835 1.89682 12.3846 1.90085 12.3847 1.90512C11.0847 2.52784 9.74629 7.37448 9.71012 14.1624H12.3835V16.781C11.1473 16.9207 10.1835 17.9681 10.1835 19.2358C10.1835 20.5035 11.1473 21.5509 12.3835 21.6906V23.0355C12.3776 24.6865 11.4024 25.4369 10.4966 25.4369C10.4947 25.4369 10.4927 25.4369 10.4907 25.4369C9.59025 25.4337 8.62366 24.6815 8.62949 23.0375C8.63003 22.882 8.50446 22.7556 8.34896 22.755C8.34865 22.755 8.34829 22.755 8.34793 22.755C8.19291 22.755 8.06698 22.8804 8.06644 23.0355C8.06325 23.9333 8.31807 24.6933 8.80326 25.2333C9.24542 25.7254 9.84405 25.9977 10.4888 25.9999C10.4913 26 10.4939 26 10.4965 26C11.7101 26 12.9396 24.9839 12.9465 23.0375C12.9465 23.0373 12.9465 23.0371 12.9465 23.037C12.9465 23.0368 12.9465 23.0367 12.9465 23.0365V21.6906C14.1827 21.5509 15.1465 20.5035 15.1465 19.2358C15.1465 17.9681 14.1828 16.9207 12.9466 16.781ZM12.0956 20.1782C11.9789 20.0627 11.9046 19.8992 11.872 19.6886L12.2937 19.6387C12.3107 19.7251 12.3433 19.7992 12.3911 19.8617C12.4385 19.9242 12.4913 19.9687 12.5491 19.997V19.3199C12.3384 19.2597 12.1838 19.1685 12.0859 19.0463C11.9876 18.9235 11.9384 18.7753 11.9384 18.6008C11.9384 18.424 11.9941 18.2751 12.1053 18.1552C12.2168 18.0348 12.3643 17.9657 12.5491 17.9473V17.7883H12.785V17.9473C12.9575 17.968 13.0945 18.0265 13.1969 18.1233C13.2988 18.2199 13.3642 18.3493 13.3923 18.5112L12.9808 18.5642C12.9553 18.4372 12.8898 18.351 12.7849 18.3055V18.9374C13.0453 19.007 13.2232 19.0983 13.3171 19.2093C13.4115 19.3209 13.4585 19.4641 13.4585 19.6387C13.4585 19.8339 13.3997 19.9982 13.2807 20.1317C13.1618 20.2657 12.9965 20.3485 12.7849 20.3817V20.6835H12.5491V20.385C12.3635 20.3623 12.2124 20.294 12.0956 20.1782ZM10.7466 19.2358C10.7466 18.1837 11.6072 17.3276 12.665 17.3276C12.6651 17.3276 12.6652 17.3276 12.6653 17.3276C11.6075 17.3278 10.7471 18.1838 10.7471 19.2358C10.7471 20.2878 11.6076 21.1437 12.6653 21.1439C12.6652 21.1439 12.6651 21.1439 12.665 21.1439C11.6072 21.1439 10.7466 20.288 10.7466 19.2358Z" fill="white"/>
<path d="M1.87352 16.0555H0.795898V17.128H1.87352V16.0555Z" fill="white"/>
<path d="M4.02977 16.0555H2.95215V17.128H4.02977V16.0555Z" fill="white"/>
<path d="M6.187 16.0555H5.10938V17.128H6.187V16.0555Z" fill="white"/>
<path d="M8.34362 16.0555H7.26611V17.128H8.34362V16.0555Z" fill="white"/>
<path d="M10.5005 16.0555H9.42285V17.128H10.5005V16.0555Z" fill="white"/>
<path d="M15.9091 16.0555H14.8315V17.128H15.9091V16.0555Z" fill="white"/>
<path d="M18.0654 16.0555H16.9878V17.128H18.0654V16.0555Z" fill="white"/>
<path d="M20.2221 16.0555H19.1445V17.128H20.2221V16.0555Z" fill="white"/>
<path d="M22.379 16.0555H21.3013V17.128H22.379V16.0555Z" fill="white"/>
<path d="M24.5356 16.0555H23.458V17.128H24.5356V16.0555Z" fill="white"/>
</svg>
