<svg width="22" height="24" viewBox="0 0 22 24" fill="none" xmlns="http://www.w3.org/2000/svg">
<path d="M21.9841 0.637853C22.0064 0.544548 22.0013 0.446817 21.9695 0.356318C21.9377 0.265818 21.8806 0.186369 21.8049 0.127445C21.7292 0.068521 21.6382 0.0326099 21.5427 0.0239941C21.4471 0.0153784 21.3512 0.0344218 21.2662 0.0788531L0.783151 10.8189C0.556513 10.9383 0.365274 11.1153 0.228617 11.332C0.0919603 11.5487 0.0146912 11.7975 0.00456079 12.0535C-0.00556966 12.3095 0.0517947 12.5637 0.1709 12.7905C0.290004 13.0173 0.466662 13.2089 0.683151 13.3459L5.24315 16.2279C5.28898 16.257 5.34304 16.2704 5.39717 16.2661C5.45129 16.2617 5.50254 16.2399 5.54315 16.2039L17.7002 5.33585C17.7464 5.29202 17.8077 5.26759 17.8714 5.26759C17.9351 5.26758 17.9964 5.292 18.0427 5.33582C18.0889 5.37965 18.1166 5.43953 18.1201 5.50316C18.1235 5.56678 18.1024 5.6293 18.0612 5.67785L8.34615 17.8639C8.32428 17.8913 8.30845 17.9231 8.29968 17.9571C8.29091 17.9911 8.2894 18.0266 8.29525 18.0612C8.30109 18.0958 8.31417 18.1288 8.33363 18.158C8.35308 18.1873 8.37847 18.2121 8.40815 18.2309L14.8402 22.2999C15.0359 22.4232 15.2582 22.4981 15.4887 22.5182C15.7192 22.5383 15.9512 22.5032 16.1654 22.4156C16.3795 22.3281 16.5697 22.1908 16.7201 22.0149C16.8705 21.8391 16.9768 21.63 17.0302 21.4049L21.9841 0.637853Z" fill="black"/>
<path d="M6.885 19.1818C6.84712 19.1579 6.80353 19.1446 6.75876 19.1432C6.71398 19.1418 6.66965 19.1524 6.63036 19.174C6.59108 19.1955 6.55827 19.2271 6.53535 19.2656C6.51243 19.3041 6.50022 19.348 6.5 19.3928C6.5 20.4488 6.5 22.9778 6.5 22.9778C6.50004 23.1756 6.55871 23.3689 6.6686 23.5333C6.77848 23.6977 6.93465 23.8258 7.11735 23.9015C7.30005 23.9772 7.50108 23.997 7.69503 23.9584C7.88898 23.9198 8.06715 23.8246 8.207 23.6848L10.225 21.6678C10.2513 21.6412 10.2714 21.6091 10.2837 21.5738C10.296 21.5384 10.3002 21.5008 10.2961 21.4636C10.292 21.4264 10.2796 21.3906 10.2599 21.3588C10.2401 21.327 10.2135 21.3 10.182 21.2798L6.885 19.1818Z" fill="black"/>
</svg>
