<svg width="33" height="34" viewBox="0 0 33 34" fill="none" xmlns="http://www.w3.org/2000/svg">
<path d="M0.600346 28.2044L0.703045 27.6161C0.734171 27.4378 1.49446 23.2315 4.07285 21.438C4.84952 20.8979 5.78888 20.6896 6.71794 20.8518C7.64701 21.0139 8.45777 21.5284 9.00001 22.3C9.54467 23.075 9.75407 24.0152 9.59058 24.9482C9.4276 25.8784 8.91139 26.6888 8.13883 27.2297C5.56851 29.0288 1.36677 28.3358 1.18895 28.3053L0.600346 28.2044ZM6.51316 22.0248C5.89496 21.9169 5.26996 22.0556 4.75261 22.4156C3.10981 23.5582 2.30925 26.0494 2.01463 27.2074C3.2028 27.3187 5.81484 27.403 7.45621 26.2547C7.96778 25.8967 8.30932 25.3598 8.41762 24.7429C8.52633 24.1236 8.38683 23.4997 8.02577 22.9852C7.66664 22.4734 7.12902 22.1323 6.51316 22.0248Z" fill="black"/>
<path d="M1.18703 28.3045C1.03687 28.2783 0.896756 28.1946 0.802349 28.0603C0.613049 27.7909 0.67776 27.4202 0.947129 27.2309L4.84427 24.4927C5.11364 24.3034 5.48432 24.3682 5.67362 24.6375C5.86292 24.9069 5.79821 25.2776 5.52884 25.4669L1.63171 28.2051C1.49726 28.3001 1.33718 28.3308 1.18703 28.3045Z" fill="black"/>
<path d="M10.1912 24.8884C10.0357 24.8613 9.89691 24.7736 9.80647 24.6442L7.06896 20.7465C6.87966 20.4772 6.94437 20.1065 7.21374 19.9172L28.6469 4.85446C28.7765 4.76344 28.9362 4.72787 29.0916 4.755C29.2471 4.78213 29.3859 4.86983 29.4763 4.99924L32.2145 8.89638C32.4038 9.16575 32.3391 9.53644 32.0697 9.72574L10.6358 24.7889C10.5064 24.8794 10.3466 24.9155 10.1912 24.8884ZM8.3848 20.5489L10.4378 23.4718L30.8981 9.09389L28.8444 6.17089L8.3848 20.5489Z" fill="black"/>
<path d="M16.8005 11.5109C16.6503 11.4847 16.5102 11.401 16.4158 11.2667C16.2265 10.9973 16.2912 10.6266 16.5606 10.4373L24.3545 4.95963C25.6973 4.01545 27.5589 4.34044 28.5024 5.68374C28.6917 5.95311 28.627 6.3238 28.3577 6.51309C28.0883 6.70239 27.7176 6.63768 27.5283 6.36831C26.9614 5.56158 25.8445 5.36722 25.0391 5.93377L17.2452 11.4114C17.1108 11.5059 16.9506 11.5371 16.8005 11.5109Z" fill="black"/>
<path d="M23.831 15.3026C23.6809 15.2764 23.5407 15.1927 23.4463 15.0584L20.7081 11.1613C20.5188 10.8919 20.5835 10.5212 20.8529 10.3319C21.1223 10.1426 21.493 10.2073 21.6823 10.4767L24.4205 14.3738C24.6098 14.6432 24.5451 15.0139 24.2757 15.2032C24.1414 15.2976 23.9812 15.3289 23.831 15.3026Z" fill="black"/>
</svg>
