<svg width="23" height="22" viewBox="0 0 23 22" fill="none" xmlns="http://www.w3.org/2000/svg">
<path d="M21.6766 4.98561L20.1152 3.43519L21.6766 1.88478C21.8837 1.67773 22 1.3969 22 1.10408C22 0.81126 21.8837 0.530433 21.6766 0.323378C21.4696 0.116322 21.1887 0 20.8959 0C20.6031 0 20.3223 0.116322 20.1152 0.323378L8.52562 11.913C7.3887 11.1629 6.01382 10.8615 4.66738 11.0673C3.32094 11.273 2.09881 11.9713 1.2378 13.0267C0.376792 14.0821 -0.0617935 15.4195 0.00702754 16.7799C0.0758486 18.1402 0.647176 19.4266 1.61031 20.3897C2.57343 21.3528 3.85979 21.9242 5.22012 21.993C6.58045 22.0618 7.9179 21.6232 8.97332 20.7622C10.0287 19.9012 10.727 18.6791 10.9327 17.3326C11.1385 15.9862 10.8371 14.6113 10.087 13.4744L15.453 8.09742L17.0034 9.65883C17.1061 9.76074 17.228 9.84137 17.362 9.89609C17.4959 9.95081 17.6394 9.97854 17.7841 9.97771C17.9288 9.97854 18.0723 9.95081 18.2062 9.89609C18.3402 9.84137 18.4621 9.76074 18.5648 9.65883C18.6679 9.55661 18.7497 9.43499 18.8055 9.301C18.8613 9.167 18.8901 9.02328 18.8901 8.87812C18.8901 8.73297 18.8613 8.58925 18.8055 8.45525C18.7497 8.32126 18.6679 8.19964 18.5648 8.09742L17.0034 6.60199L18.5648 5.04058L20.1152 6.60199C20.218 6.7039 20.3398 6.78453 20.4738 6.83925C20.6078 6.89397 20.7512 6.92171 20.8959 6.92087C21.0406 6.92171 21.1841 6.89397 21.3181 6.83925C21.452 6.78453 21.5739 6.7039 21.6766 6.60199C21.7882 6.49902 21.8773 6.37405 21.9382 6.23496C21.9992 6.09586 22.0306 5.94565 22.0306 5.7938C22.0306 5.64194 21.9992 5.49174 21.9382 5.35264C21.8773 5.21354 21.7882 5.08857 21.6766 4.98561ZM5.50177 19.797C4.84934 19.797 4.21156 19.6035 3.66909 19.241C3.12661 18.8786 2.7038 18.3634 2.45413 17.7606C2.20446 17.1578 2.13913 16.4946 2.26641 15.8547C2.3937 15.2148 2.70787 14.627 3.16921 14.1657C3.63055 13.7043 4.21833 13.3901 4.85822 13.2629C5.49811 13.1356 6.16138 13.2009 6.76415 13.4506C7.36692 13.7003 7.88211 14.1231 8.24458 14.6655C8.60705 15.208 8.80052 15.8458 8.80052 16.4982C8.80052 17.3731 8.45297 18.2122 7.83434 18.8308C7.2157 19.4494 6.37666 19.797 5.50177 19.797Z" fill="white"/>
</svg>
