<svg width="24" height="19" viewBox="0 0 24 19" fill="none" xmlns="http://www.w3.org/2000/svg">
<path d="M12 6.81982C12 8.47582 10.656 9.81982 9 9.81982C9 11.4758 10.344 12.8198 12 12.8198C13.656 12.8198 15 11.4758 15 9.81982C15 8.16382 13.656 6.81982 12 6.81982ZM12 0.819824C5.847 0.819824 0 7.79182 0 9.81982C0 11.8478 5.847 18.8198 12 18.8198C18.153 18.8198 24 11.8478 24 9.81982C24 7.79182 18.153 0.819824 12 0.819824ZM12 15.8198C8.6865 15.8198 6 13.1333 6 9.81982C6 6.50632 8.6865 3.81982 12 3.81982C15.3135 3.81982 18 6.50632 18 9.81982C18 13.1333 15.3135 15.8198 12 15.8198Z" fill="#090909"/>
</svg>
